<svg width="540" height="32" viewBox="0 0 540 32" fill="none" xmlns="http://www.w3.org/2000/svg">
<path d="M414.168 5.0574H417.264C417.264 11.8974 415.488 17.6334 407.52 21.8094L405.768 19.3854C412.32 15.9294 414.168 11.7294 414.168 5.4414V5.0574ZM407.088 5.0574H416.112V7.5774H407.088V5.0574ZM414.48 10.5054V12.9294L406.32 13.6734L405.912 10.9854L414.48 10.5054ZM421.368 2.9214H424.56V25.1454H421.368V2.9214ZM417.24 11.4414H423.048V14.0334H417.24V11.4414ZM432.646 15.9534H435.838V25.2174H432.646V15.9534ZM440.47 15.9534H443.662V25.2174H440.47V15.9534ZM428.038 15.3054H448.174V17.8494H428.038V15.3054ZM430.366 3.9774H445.774V12.9294H430.366V3.9774ZM442.63 6.4734H433.51V10.4094H442.63V6.4734ZM465.5 2.9214H468.692V25.1454H465.5V2.9214ZM451.292 5.0334H454.46V18.8334H451.292V5.0334ZM451.292 16.9614H453.26C456.5 16.9614 460.1 16.7214 463.772 16.0014L464.132 18.6414C460.316 19.4334 456.644 19.6734 453.26 19.6734H451.292V16.9614ZM473.394 17.5374H475.314C479.202 17.5374 482.178 17.4654 485.61 16.9614L485.898 19.4814C482.418 20.0334 479.274 20.1294 475.314 20.1294H473.394V17.5374ZM473.394 4.7694H484.65V7.3614H476.562V18.3774H473.394V4.7694ZM475.842 10.9374H483.714V13.4334H475.842V10.9374ZM487.506 2.9214H490.722V25.1454H487.506V2.9214Z" fill="black"/>
<path d="M273.024 4.7934H287.112V7.3614H273.024V4.7934ZM270.984 19.8894H291.072V22.4814H270.984V19.8894ZM278.088 12.2574H281.28V21.1614H278.088V12.2574ZM285.96 4.7934H289.152V6.9294C289.152 9.7134 289.152 12.8334 288.264 17.5854L285.072 17.2254C285.96 12.8094 285.96 9.5934 285.96 6.9294V4.7934ZM308.95 2.9214H311.974V15.9294H308.95V2.9214ZM306.238 8.0334H309.79V10.6254H306.238V8.0334ZM304.102 3.3294H307.078V15.8574H304.102V3.3294ZM296.566 16.8414H311.974V25.1454H308.806V19.3854H296.566V16.8414ZM299.47 4.4574H302.662C302.662 10.0734 300.046 13.8174 294.286 16.0734L292.798 13.7454C297.526 11.9934 299.47 9.3054 299.47 5.6574V4.4574ZM293.854 4.4574H300.502V7.0014H293.854V4.4574ZM330.428 2.8974H333.62V25.1934H330.428V2.8974ZM316.316 17.4174H318.284C322.22 17.4174 325.364 17.2734 328.892 16.6734L329.204 19.2414C325.604 19.8894 322.34 20.0094 318.284 20.0094H316.316V17.4174ZM316.292 4.7934H326.78V13.3854H319.556V18.3774H316.316V10.8654H323.516V7.3374H316.292V4.7934ZM341.682 15.9054H344.898V25.1454H341.682V15.9054ZM349.626 15.9054H352.842V25.1454H349.626V15.9054ZM337.194 15.5214H357.33V18.0654H337.194V15.5214ZM339.498 3.7374H342.666V6.1614H351.786V3.7374H354.954V13.4334H339.498V3.7374ZM342.666 8.6814V10.8654H351.786V8.6814H342.666Z" fill="black"/>
<path d="M151.368 2.9214H154.56V19.2894H151.368V2.9214ZM144.456 4.5774H147.84C147.84 10.6014 144.024 14.9934 137.568 16.9854L136.248 14.4654C141.408 12.8334 144.456 9.7854 144.456 6.0654V4.5774ZM137.424 4.5774H146.448V7.1454H137.424V4.5774ZM146.616 7.1694H151.824V9.7374H146.616V7.1694ZM146.4 12.1854H151.656V14.7294H146.4V12.1854ZM139.992 22.2174H155.112V24.7614H139.992V22.2174ZM139.992 17.7054H143.208V23.8494H139.992V17.7054ZM163.174 5.1294H165.766V6.5454C165.766 10.7214 163.798 14.5854 159.526 15.9774L157.918 13.4574C161.59 12.2574 163.174 9.3294 163.174 6.5454V5.1294ZM163.846 5.1294H166.414V6.5454C166.414 9.1374 167.926 11.8734 171.43 13.0494L169.87 15.5454C165.742 14.1774 163.846 10.4814 163.846 6.5454V5.1294ZM170.134 8.2254H174.358V10.8174H170.134V8.2254ZM158.782 4.1454H170.734V6.6654H158.782V4.1454ZM161.494 17.1534H176.638V25.1454H173.446V19.6974H161.494V17.1534ZM173.446 2.9214H176.638V16.1454H173.446V2.9214ZM187.268 4.3854C190.772 4.3854 193.388 6.6654 193.388 9.8574C193.388 13.0734 190.772 15.3534 187.268 15.3534C183.788 15.3534 181.124 13.0734 181.124 9.8574C181.124 6.6654 183.788 4.3854 187.268 4.3854ZM187.268 7.1214C185.564 7.1214 184.268 8.1294 184.268 9.8574C184.268 11.6094 185.564 12.6174 187.268 12.6174C188.972 12.6174 190.268 11.6094 190.268 9.8574C190.268 8.1294 188.972 7.1214 187.268 7.1214ZM195.476 2.8974H198.668V25.1934H195.476V2.8974ZM180.596 20.6814L180.212 18.1134C184.124 18.1134 189.572 18.0654 194.252 17.3694L194.492 19.6734C189.668 20.6334 184.436 20.6814 180.596 20.6814ZM203.778 4.8414H215.13V11.4894H206.97V14.1774H203.802V9.1614H211.962V7.3374H203.778V4.8414ZM203.802 13.3614H215.61V15.8334H203.802V13.3614ZM207.954 15.0414H211.17V19.3854H207.954V15.0414ZM217.554 2.8974H220.746V25.1934H217.554V2.8974ZM202.674 21.2814L202.29 18.6894C206.538 18.6894 211.77 18.6654 216.33 18.1854L216.57 20.4894C211.77 21.2574 206.802 21.3054 202.674 21.2814Z" fill="black"/>
<path d="M6.384 4.6254H8.976V7.8654C8.976 13.5774 7.008 18.7374 2.592 20.7774L0.696 18.1374C4.56 16.4574 6.384 12.1854 6.384 7.8654V4.6254ZM7.008 4.6254H9.6V7.8654C9.6 11.9694 11.352 16.0494 15.144 17.6814L13.272 20.2494C8.976 18.2814 7.008 13.3374 7.008 7.8654V4.6254ZM16.2 2.8974H19.416V25.1934H16.2V2.8974ZM32.9741 16.7454C37.7741 16.7454 40.8461 18.3294 40.8461 20.9694C40.8461 23.5614 37.7741 25.1454 32.9741 25.1454C28.1741 25.1454 25.1021 23.5614 25.1021 20.9694C25.1021 18.3294 28.1741 16.7454 32.9741 16.7454ZM32.9741 19.1454C29.9741 19.1454 28.2701 19.7694 28.2701 20.9694C28.2701 22.1454 29.9741 22.7454 32.9741 22.7454C35.9741 22.7454 37.6781 22.1454 37.6781 20.9694C37.6781 19.7694 35.9741 19.1454 32.9741 19.1454ZM25.3421 3.9054H39.4061V6.4254H25.3421V3.9054ZM23.0861 12.8334H43.1021V15.3774H23.0861V12.8334ZM30.5021 8.9694H33.6701V13.4814H30.5021V8.9694ZM37.5581 3.9054H40.7261V5.7294C40.7261 7.4814 40.7261 9.3774 40.1261 11.6814L36.9581 11.3454C37.5581 9.0654 37.5581 7.4574 37.5581 5.7294V3.9054ZM50.1083 4.6254H52.7003V7.8654C52.7003 13.3614 50.7803 18.5214 46.5803 20.5854L44.6603 18.0174C48.4043 16.2654 50.1083 11.9934 50.1083 7.8654V4.6254ZM50.7563 4.6254H53.3003V7.8654C53.3003 11.8494 54.8843 15.9054 58.4363 17.6334L56.5163 20.1774C52.5083 18.1374 50.7563 13.1934 50.7563 7.8654V4.6254ZM59.3243 2.9214H62.5403V25.1454H59.3243V2.9214ZM61.8203 11.4654H65.7563V14.1294H61.8203V11.4654ZM67.7944 17.5134H69.2584C71.6104 17.5134 73.7224 17.4414 76.2424 17.0334L76.5064 19.6014C73.8904 20.0574 71.7304 20.1534 69.2584 20.1534H67.7944V17.5134ZM67.7704 5.0574H75.3064V13.6254H70.8904V18.2814H67.7944V11.1294H72.2104V7.5774H67.7704V5.0574ZM83.2504 2.9214H86.2744V25.1454H83.2504V2.9214ZM76.3384 8.3694H79.8904V10.9374H76.3384V8.3694ZM78.6664 3.2814H81.6664V24.0894H78.6664V3.2814ZM76.3384 13.8894H79.8904V16.4574H76.3384V13.8894Z" fill="black"/>
</svg>
