<svg width="55" height="55" viewBox="0 0 55 55" fill="none" xmlns="http://www.w3.org/2000/svg">
<path d="M39.2119 34.0323H36.7389L35.8624 33.1981C38.9301 29.6755 40.777 25.1023 40.777 20.1274C40.777 9.03435 31.6678 0.0424805 20.4299 0.0424805C9.19202 0.0424805 0.0827637 9.03435 0.0827637 20.1274C0.0827637 31.2205 9.19202 40.2123 20.4299 40.2123C25.4697 40.2123 30.1026 38.3892 33.6712 35.361L34.5164 36.2262V38.6673L50.168 54.0864L54.8322 49.4823L39.2119 34.0323ZM20.4299 34.0323C12.6354 34.0323 6.34342 27.8215 6.34342 20.1274C6.34342 12.4333 12.6354 6.22246 20.4299 6.22246C28.2244 6.22246 34.5164 12.4333 34.5164 20.1274C34.5164 27.8215 28.2244 34.0323 20.4299 34.0323Z" fill="black"/>
</svg>
