<svg width="63" height="62" viewBox="0 0 63 62" fill="none" xmlns="http://www.w3.org/2000/svg">
<path d="M31.5 0.166687C14.25 0.166687 0.25 13.98 0.25 31C0.25 48.02 14.25 61.8334 31.5 61.8334C48.75 61.8334 62.75 48.02 62.75 31C62.75 13.98 48.75 0.166687 31.5 0.166687ZM31.5 9.41669C36.6875 9.41669 40.875 13.5484 40.875 18.6667C40.875 23.785 36.6875 27.9167 31.5 27.9167C26.3125 27.9167 22.125 23.785 22.125 18.6667C22.125 13.5484 26.3125 9.41669 31.5 9.41669ZM31.5 53.2C23.6875 53.2 16.7812 49.2533 12.75 43.2717C12.8438 37.1359 25.25 33.775 31.5 33.775C37.7188 33.775 50.1562 37.1359 50.25 43.2717C46.2188 49.2533 39.3125 53.2 31.5 53.2Z" fill="black"/>
</svg>
