<svg width="55" height="54" viewBox="0 0 55 54" fill="none" xmlns="http://www.w3.org/2000/svg">
<path d="M39.2411 33.9375H36.7709L35.8954 33.105C38.9597 29.59 40.8045 25.0267 40.8045 20.0625C40.8045 8.99337 31.7055 0.020874 20.4804 0.020874C9.2552 0.020874 0.15625 8.99337 0.15625 20.0625C0.15625 31.1317 9.2552 40.1042 20.4804 40.1042C25.5145 40.1042 30.1421 38.285 33.7067 35.2634L34.5509 36.1267V38.5625L50.1848 53.9484L54.8438 49.3542L39.2411 33.9375ZM20.4804 33.9375C12.6947 33.9375 6.40982 27.74 6.40982 20.0625C6.40982 12.385 12.6947 6.18754 20.4804 6.18754C28.2661 6.18754 34.5509 12.385 34.5509 20.0625C34.5509 27.74 28.2661 33.9375 20.4804 33.9375Z" fill="black"/>
</svg>
