<svg width="63" height="62" viewBox="0 0 63 62" fill="none" xmlns="http://www.w3.org/2000/svg">
<path d="M31.5 0.166992C14.25 0.166992 0.25 13.9803 0.25 31.0003C0.25 48.0203 14.25 61.8337 31.5 61.8337C48.75 61.8337 62.75 48.0203 62.75 31.0003C62.75 13.9803 48.75 0.166992 31.5 0.166992ZM31.5 9.41699C36.6875 9.41699 40.875 13.5487 40.875 18.667C40.875 23.7853 36.6875 27.917 31.5 27.917C26.3125 27.917 22.125 23.7853 22.125 18.667C22.125 13.5487 26.3125 9.41699 31.5 9.41699ZM31.5 53.2003C23.6875 53.2003 16.7812 49.2537 12.75 43.272C12.8438 37.1362 25.25 33.7753 31.5 33.7753C37.7188 33.7753 50.1562 37.1362 50.25 43.272C46.2188 49.2537 39.3125 53.2003 31.5 53.2003Z" fill="#9DD84B"/>
</svg>
