<svg width="65" height="74" viewBox="0 0 65 74" fill="none" xmlns="http://www.w3.org/2000/svg">
<path d="M32.5 74C36.9688 74 40.625 70.5846 40.625 66.4103H24.375C24.375 70.5846 28.0312 74 32.5 74ZM56.875 51.2308V32.2564C56.875 20.6062 50.2531 10.8533 38.5938 8.27282V5.69231C38.5938 2.54256 35.8719 0 32.5 0C29.1281 0 26.4062 2.54256 26.4062 5.69231V8.27282C14.7875 10.8533 8.125 20.5682 8.125 32.2564V51.2308L0 58.8205V62.6154H65V58.8205L56.875 51.2308ZM48.75 55.0256H16.25V32.2564C16.25 22.8451 22.3844 15.1795 32.5 15.1795C42.6156 15.1795 48.75 22.8451 48.75 32.2564V55.0256Z" fill="#9DD84B"/>
</svg>
