<svg width="40" height="40" viewBox="0 0 40 40" fill="none" xmlns="http://www.w3.org/2000/svg">
<path d="M8.04445 17.3111C11.2444 23.6 16.4 28.7333 22.6889 31.9556L27.5778 27.0667C28.1778 26.4667 29.0667 26.2667 29.8444 26.5333C32.3333 27.3556 35.0222 27.8 37.7778 27.8C39 27.8 40 28.8 40 30.0222V37.7778C40 39 39 40 37.7778 40C16.9111 40 0 23.0889 0 2.22222C0 1 1 0 2.22222 0H10C11.2222 0 12.2222 1 12.2222 2.22222C12.2222 5 12.6667 7.66667 13.4889 10.1556C13.7333 10.9333 13.5556 11.8 12.9333 12.4222L8.04445 17.3111Z" fill="#787878"/>
</svg>
