<svg width="55" height="54" viewBox="0 0 55 54" fill="none" xmlns="http://www.w3.org/2000/svg">
<path d="M39.2411 33.9372H36.7709L35.8954 33.1047C38.9597 29.5897 40.8045 25.0263 40.8045 20.0622C40.8045 8.99301 31.7055 0.0205078 20.4804 0.0205078C9.2552 0.0205078 0.15625 8.99301 0.15625 20.0622C0.15625 31.1313 9.2552 40.1038 20.4804 40.1038C25.5145 40.1038 30.1421 38.2847 33.7067 35.263L34.5509 36.1263V38.5622L50.1848 53.948L54.8438 49.3538L39.2411 33.9372ZM20.4804 33.9372C12.6947 33.9372 6.40982 27.7397 6.40982 20.0622C6.40982 12.3847 12.6947 6.18717 20.4804 6.18717C28.2661 6.18717 34.5509 12.3847 34.5509 20.0622C34.5509 27.7397 28.2661 33.9372 20.4804 33.9372Z" fill="#9DD84B"/>
</svg>
